<svg width="192" height="212" viewBox="0 0 192 212" fill="none" xmlns="http://www.w3.org/2000/svg">
<g clip-path="url(#clip0_715_69)">
<path d="M49.8958 177.652C49.6192 177.185 48.4227 177.685 48.2027 177.261C47.9835 176.84 49.0953 176.197 49.7304 174.729C49.845 174.464 50.5667 172.796 50.0324 172.281C49.0196 171.305 44.3848 175.332 42.7629 174.014C42.4069 173.725 42.1582 173.147 41.0809 172.21C40.6523 171.837 40.3932 171.669 40.1424 171.731C39.7865 171.82 39.7583 172.297 39.3767 173.233C38.8044 174.638 38.4659 174.553 38.1324 175.674C37.8849 176.506 37.9414 176.99 37.6501 177.084C37.2379 177.217 36.8585 176.335 36.3362 176.414C35.8031 176.494 35.4808 177.522 35.379 178.291C35.188 179.735 35.7181 180.687 36.0119 181.689C36.3312 182.778 36.5207 184.433 35.7833 186.777L28.4855 207.342C30.0966 203.122 34.7616 191.554 36.7219 187.255C37.2878 186.014 37.9126 184.756 39.1955 184.259C40.4307 183.781 42.1271 184.066 44.2897 183.545C44.5423 183.484 45.2432 183.306 45.3314 182.894C45.4043 182.553 44.9921 182.362 45.0554 182.043C45.1404 181.615 45.9511 181.61 46.9474 181.116C47.6499 180.767 48.0875 180.353 48.4639 179.997C48.5774 179.889 50.2641 178.273 49.8959 177.652H49.8958L49.8958 177.652H49.8958Z" fill="#FF4878"/>
<path d="M21.1839 188.478C20.8752 188.479 20.775 189.211 20.5038 189.197C20.2336 189.183 20.239 188.451 19.7018 187.716C19.6049 187.583 18.9944 186.748 18.5876 186.861C17.8165 187.077 18.4554 190.514 17.3407 190.93C17.0961 191.021 16.741 190.977 15.9701 191.235C15.6635 191.338 15.5061 191.417 15.4645 191.558C15.4054 191.758 15.631 191.91 15.9806 192.367C16.5048 193.053 16.3655 193.195 16.8192 193.682C17.1561 194.044 17.4098 194.155 17.372 194.326C17.3185 194.566 16.776 194.498 16.664 194.777C16.5498 195.062 16.961 195.517 17.3091 195.789C17.9624 196.299 18.5829 196.314 19.1592 196.459C19.7855 196.616 20.6525 197.001 21.5898 198.039L29.576 207.555C27.9701 205.546 23.6394 199.919 22.0955 197.716C21.6498 197.08 21.2124 196.41 21.3388 195.637C21.4605 194.893 22.0901 194.143 22.4584 192.931C22.5014 192.789 22.6161 192.394 22.4392 192.231C22.293 192.097 22.0807 192.245 21.9423 192.121C21.7566 191.956 21.988 191.557 22.033 190.925C22.0647 190.48 21.9877 190.145 21.9214 189.858C21.9014 189.771 21.5948 188.477 21.1839 188.478V188.478L21.1839 188.478Z" fill="#FF4878"/>
<path d="M27.3425 189.861L27.1565 188.2L27.2415 188.074C27.6347 187.492 27.8351 186.924 27.8375 186.384C27.8379 186.298 27.8339 186.213 27.8299 186.125C27.8139 185.779 27.7938 185.348 28.0183 184.846C28.1442 184.566 28.4977 183.919 29.0292 183.999C29.1723 184.019 29.2806 184.085 29.3627 184.162C29.3748 184.142 29.3872 184.123 29.4004 184.102C29.566 183.85 29.697 183.741 29.8233 183.637C29.9203 183.557 30.0205 183.474 30.1777 183.279C30.2466 183.193 30.3003 183.118 30.3456 183.054C30.4831 182.863 30.6627 182.634 30.9793 182.638C31.3177 182.654 31.4948 182.934 31.6123 183.119C31.8219 183.45 31.9169 183.688 31.9799 183.846C32.0027 183.903 32.0288 183.968 32.042 183.988C32.151 184.149 33.0373 183.999 33.3712 183.944C34.1212 183.819 34.7701 183.711 35.0375 184.184C35.2291 184.522 35.0868 184.97 34.6018 185.55C34.4507 185.73 34.2899 185.867 34.1472 185.975C34.2655 186.045 34.3713 186.153 34.4142 186.323C34.5152 186.726 34.1693 187.129 33.3864 187.524C33.192 187.622 32.9303 187.754 32.5635 187.817C32.3907 187.847 32.2352 187.854 32.1021 187.858C32.0993 187.935 32.0813 188.018 32.0344 188.104C31.8969 188.357 31.6107 188.477 31.1794 188.448C30.7048 188.423 30.314 188.333 29.9692 188.253C29.6682 188.184 29.4088 188.126 29.2052 188.139C28.8276 188.17 28.5366 188.472 28.1951 188.864L27.3425 189.861H27.3425L27.3425 189.861Z" fill="#FF4878"/>
<path d="M28.2053 179.974L26.6465 180.575L26.5032 180.525C25.8405 180.292 25.2398 180.242 24.7173 180.377C24.6342 180.398 24.5523 180.424 24.4688 180.45C24.1378 180.553 23.7265 180.682 23.1841 180.592C22.8815 180.541 22.1653 180.363 22.108 179.829C22.0911 179.685 22.1272 179.564 22.1809 179.465C22.1592 179.458 22.1374 179.451 22.1139 179.443C21.8276 179.347 21.6897 179.248 21.5569 179.152C21.4547 179.079 21.3494 179.003 21.1204 178.9C21.0199 178.855 20.9334 178.823 20.8606 178.795C20.6404 178.71 20.3738 178.595 20.2974 178.287C20.2271 177.956 20.4528 177.714 20.6021 177.553C20.8685 177.266 21.0747 177.114 21.2115 177.013C21.2615 176.976 21.3177 176.935 21.3338 176.917C21.4612 176.771 21.0914 175.951 20.954 175.642C20.6428 174.948 20.3735 174.348 20.7632 173.969C21.0418 173.698 21.5106 173.722 22.1943 174.044C22.4071 174.145 22.5805 174.265 22.7206 174.376C22.7589 174.244 22.8367 174.114 22.9902 174.029C23.3539 173.83 23.8317 174.062 24.4118 174.719C24.5565 174.882 24.7501 175.102 24.9044 175.441C24.9769 175.601 25.0233 175.749 25.061 175.877C25.1361 175.86 25.2213 175.857 25.3162 175.88C25.5954 175.949 25.7843 176.195 25.8658 176.62C25.9621 177.086 25.9736 177.487 25.9843 177.84C25.9939 178.149 26.0031 178.415 26.068 178.608C26.1932 178.966 26.5594 179.171 27.0252 179.402L28.2054 179.974H28.2053V179.974Z" fill="#FF4878"/>
<path d="M27.3425 175.082L27.1565 173.421L27.2415 173.295C27.6347 172.713 27.8351 172.145 27.8375 171.605C27.8379 171.519 27.8339 171.433 27.8299 171.346C27.8139 171 27.7938 170.569 28.0183 170.067C28.1442 169.787 28.4977 169.139 29.0292 169.219C29.1723 169.24 29.2806 169.305 29.3627 169.382C29.3748 169.363 29.3872 169.344 29.4004 169.323C29.566 169.07 29.697 168.962 29.8233 168.858C29.9203 168.778 30.0205 168.695 30.1777 168.499C30.2466 168.414 30.3003 168.338 30.3456 168.275C30.4831 168.083 30.6627 167.855 30.9793 167.859C31.3177 167.875 31.4948 168.155 31.6123 168.34C31.8219 168.67 31.9169 168.908 31.9799 169.066C32.0027 169.124 32.0288 169.189 32.042 169.209C32.151 169.369 33.0373 169.22 33.3712 169.165C34.1212 169.04 34.7701 168.932 35.0375 169.405C35.2291 169.743 35.0868 170.191 34.6018 170.77C34.4507 170.951 34.2899 171.088 34.1472 171.195C34.2655 171.266 34.3713 171.374 34.4142 171.544C34.5152 171.947 34.1693 172.35 33.3864 172.744C33.192 172.843 32.9303 172.974 32.5635 173.038C32.3907 173.067 32.2352 173.075 32.1021 173.079C32.0993 173.156 32.0813 173.239 32.0344 173.325C31.8969 173.577 31.6107 173.698 31.1794 173.669C30.7048 173.644 30.314 173.553 29.9692 173.474C29.6682 173.405 29.4088 173.347 29.2052 173.36C28.8276 173.391 28.5366 173.693 28.1951 174.085L27.3425 175.082H27.3425L27.3425 175.082Z" fill="#FF4878"/>
<path d="M29.0413 207.315L28.6934 207.097L28.6092 206.695L28.6934 207.097L28.2877 207.143C28.2813 207.106 28.2592 207.019 28.226 206.884C28.0444 206.141 27.4908 203.882 27.0291 200.323C26.7068 197.839 26.5244 195.285 26.4867 192.731C26.449 190.174 26.5701 188.237 26.6671 186.681C26.7404 185.507 26.8294 184.389 26.9168 183.3C27.1493 180.391 27.3686 177.643 27.2054 174.601C27.1693 173.922 27.0936 172.509 26.2678 171.004C25.7888 170.132 25.129 169.357 24.3065 168.703L24.818 168.06C25.7259 168.783 26.4558 169.641 26.9878 170.61C27.9033 172.278 27.9859 173.818 28.0256 174.558C28.1915 177.654 27.9698 180.428 27.7349 183.365C27.6484 184.45 27.5594 185.563 27.4864 186.732C27.3902 188.274 27.2704 190.194 27.3076 192.719C27.3445 195.242 27.5249 197.764 27.8428 200.217C28.2989 203.731 28.8445 205.957 29.0237 206.688C29.1191 207.078 29.1391 207.16 29.0413 207.315H29.0413H29.0413Z" fill="#FF4878"/>
<path d="M22.8009 170.008C22.7673 170.008 22.7332 170.007 22.6987 170.005C21.9997 169.967 21.3523 169.548 20.7743 168.761C20.5033 168.39 20.3646 167.968 20.088 167.125C20.0451 166.995 19.8367 166.336 19.71 165.429C19.6271 164.837 19.6375 164.589 19.7549 164.37C19.8852 164.126 20.096 163.956 20.3333 163.842C20.3229 163.763 20.3313 163.682 20.3654 163.6C20.5053 163.257 20.8773 163.302 21.0785 163.324C21.1803 163.337 21.3074 163.353 21.4445 163.346C21.6601 163.336 21.776 163.272 21.9516 163.175C22.1195 163.083 22.3284 162.969 22.6382 162.905C23.2491 162.778 23.761 162.951 23.9297 163.008C24.8176 163.304 25.2553 163.994 25.762 164.793C25.863 164.954 26.2097 165.538 26.4386 166.338C26.6037 166.915 26.5805 167.172 26.5308 167.362C26.4298 167.755 26.1913 167.979 25.5856 168.475C24.9531 168.993 24.6356 169.253 24.363 169.411C23.7285 169.778 23.3301 170.008 22.8009 170.008H22.8009Z" fill="#FF4878"/>
<path d="M191.5 207.269C191.5 207.421 191.377 207.544 191.225 207.544H0.5V206.994H191.225C191.377 206.994 191.5 207.117 191.5 207.269Z" fill="#C6004D"/>
<path d="M86.515 59.7228C84.5762 57.4571 81.8357 56.6212 80.3943 57.8555C78.9528 59.0898 79.3563 61.9266 81.2962 64.1928C82.0586 65.1087 83.0293 65.8287 84.127 66.2925L92.4631 75.7885L96.8352 71.7809L88.1531 62.845C87.8642 61.6884 87.3025 60.6177 86.515 59.7228Z" fill="#FFB6B6"/>
<path d="M149.085 71.3027C149.085 71.3027 150.908 79.6499 143.672 82.3115C136.435 84.9731 117.681 95.1927 116.293 94.7244C114.905 94.256 110.363 96.5424 105.003 91.665C99.643 86.7875 86.6934 72.0827 86.6934 72.0827L92.02 64.8473L112.075 78.7037C112.075 78.7037 112.504 78.5764 114.405 78.3793C116.306 78.1822 114.819 79.3816 117.793 76.9828C120.766 74.5839 139.746 65.9869 139.746 65.9869C139.746 65.9869 145.315 63.2266 149.085 71.3027L149.085 71.3027V71.3027Z" fill="#2F2E41"/>
<path d="M101.763 187.743L104.711 197.244L96.5211 202.814L90.6244 197.572C90.6244 197.572 92.9175 189.381 91.9348 187.415L101.763 187.743Z" fill="#FFB6B6"/>
<path d="M143.367 53.0791L148.064 63.4426L134.321 71.9873L133.539 59.6321L143.367 53.0791Z" fill="#FFB6B6"/>
<path opacity="0.1" d="M143.367 53.0791L148.064 63.4426L134.321 71.9873L133.539 59.6321L143.367 53.0791Z" fill="black"/>
<path d="M187.01 88.5269C182.43 85.8894 178.073 90.1021 174.013 103.414C174.013 103.414 156.865 127.705 156.86 137.841H107.804L96.9525 153.236L96.1189 153.37C96.1189 153.37 101.56 154.671 110.101 156.104V207.28H113.031V156.58C115.588 156.983 118.365 157.385 121.312 157.763V207.28H124.241V158.123C132.443 159.088 141.75 159.815 151.192 159.815C151.794 159.815 152.376 159.804 152.949 159.787V207.28H155.879V159.622C160.606 159.217 164.233 158.197 167.01 156.83V207.28H169.94V155.051C177.378 149.496 175.799 141.064 175.799 141.064C173.563 127.648 184.295 107.405 189.503 98.5702C191.546 95.1041 190.497 90.5345 187.01 88.527V88.5269Z" fill="#FCFCFC"/>
<path d="M137.966 62.3182C143.477 62.3182 147.945 57.8493 147.945 52.3366C147.945 46.8239 143.477 42.355 137.966 42.355C132.454 42.355 127.986 46.8239 127.986 52.3366C127.986 57.8493 132.454 62.3182 137.966 62.3182Z" fill="#FFB6B6"/>
<path d="M134.194 69.7892L148.281 60.2874L145.988 140.561C145.988 140.561 134.358 120.411 125.513 119.428C125.513 119.428 126.496 117.134 127.151 115.824C127.806 114.513 128.789 107.96 128.789 107.96L133.375 72.5742L134.194 69.7892V69.7892Z" fill="#6F36BB"/>
<path d="M145.496 152.848L133.048 108.943C133.048 108.943 135.013 73.5571 148.281 60.2874L151.393 65.0383C151.393 65.0383 154.47 65.4949 153.914 67.5601C153.359 69.6253 166.135 145.64 166.135 145.64H152.893C152.893 145.64 151.721 152.848 145.496 152.848Z" fill="#2F2E41"/>
<path d="M134.194 69.7891V68.4785C134.194 68.4785 128.134 68.97 127.806 72.5741C127.479 76.1783 124.858 90.2671 127.479 98.786L124.203 104.028L121.91 116.479L129.117 118.445L133.048 88.2097C133.048 88.2097 135.668 72.2465 134.194 69.7891V69.7891Z" fill="#2F2E41"/>
<path d="M145.824 132.206C145.824 132.206 151.393 148.261 139.6 148.589C127.806 148.916 109.434 148.916 109.434 148.916L100.288 153.831L102.909 189.545L84.5639 189.872C84.5639 189.872 78.6672 145.967 83.9087 140.725C89.1502 135.483 104.219 129.913 104.219 129.913L121.582 121.066L126.465 115.137L145.824 132.206Z" fill="#2F2E41"/>
<path d="M146.492 58.1576C147.188 57.9103 153.702 50.2743 148.281 45.2155C148.281 45.2155 146.168 39.0357 137.743 39.6839C129.318 40.3321 127.049 44.941 127.049 47.336C127.049 49.731 129.28 52.4238 129.28 52.4238C129.28 52.4238 127.698 45.8418 131.262 46.1659C134.827 46.49 133.854 47.7864 136.447 47.1382C139.039 46.49 141.632 47.4623 141.632 47.4623L144.224 48.4346V52.3889C144.224 52.3889 145.354 51.4817 145.437 52.3889C145.52 53.2961 146.492 58.1576 146.492 58.1576Z" fill="#2F2E41"/>
<path d="M90.133 139.087L89.8054 149.244L77.0293 146.95C77.0293 146.95 82.515 137.921 81.7377 135.391L90.133 139.087Z" fill="#FFB6B6"/>
<path d="M88.8226 146.95C88.8226 146.95 91.1157 146.95 91.1157 148.261C91.1157 149.572 94.7193 159.729 87.8398 160.056C80.9604 160.384 81.288 159.073 81.288 159.073C81.288 159.073 61.9599 167.92 55.0805 154.814C55.0805 154.814 53.4425 151.537 57.3736 150.882C61.3048 150.227 77.0292 144.741 77.0292 144.741C77.0292 144.741 86.2018 148.261 88.8226 146.95Z" fill="#2F2E41"/>
<path d="M102.09 197.244C102.09 197.244 104.383 194.466 104.711 194.708C105.038 194.951 112.246 203.142 107.332 205.436C102.418 207.729 99.797 208.712 99.797 208.712L98.4866 206.746C98.4866 206.746 88.6588 216.248 73.5895 209.695C73.5895 209.695 72.2791 206.746 75.2275 206.091C78.1758 205.436 90.6244 195.451 90.6244 195.451C90.6244 195.451 95.8658 199.21 98.4866 198.555C101.107 197.9 102.09 197.244 102.09 197.244Z" fill="#2F2E41"/>
<path d="M125.513 118.445C125.513 118.445 94.8831 102.882 92.2624 102.882C89.6416 102.882 84.6323 103.96 83.5334 108.991C82.4346 114.022 75.8827 138.268 75.8827 138.268L91.9348 142.199L98.159 124.834L108.314 134.008L125.513 123.75V118.445Z" fill="#2F2E41"/>
<path d="M111.09 112.433C108.14 112.866 105.972 114.739 106.248 116.617C106.524 118.495 109.139 119.665 112.09 119.232C113.271 119.075 114.398 118.637 115.375 117.955L127.852 115.962L126.792 110.126L114.605 112.711C113.472 112.339 112.267 112.243 111.09 112.433Z" fill="#FFB6B6"/>
<path d="M154.238 65.6555C154.238 65.6555 162.271 68.5618 160.665 76.1046C159.059 83.6474 157.708 104.965 156.572 105.89C155.436 106.815 154.95 111.877 147.966 113.813C140.983 115.749 120.944 124.319 120.944 124.319L118.359 110.506L140.771 100.92C140.771 100.92 140.892 100.489 141.739 98.7754C142.585 97.0616 142.807 98.9591 142.363 95.164C141.919 91.369 144.762 70.7254 144.762 70.7254C144.762 70.7254 145.396 64.5411 154.238 65.6555L154.238 65.6555Z" fill="#2F2E41"/>
<path d="M81.698 4.56612C81.6575 4.60545 81.6202 4.64683 81.5802 4.68649C75.3327 -1.51412 65.2711 -1.56867 58.9567 4.56378C52.6199 10.7204 52.4057 20.8272 58.4761 27.2468L58.4722 27.2507L58.6233 27.4063L80.9775 50.4266L104.15 27.9175L104.085 27.8511C104.124 27.814 104.165 27.7797 104.203 27.742C110.602 21.5263 110.751 11.2994 104.537 4.89952C98.3219 -1.50033 88.0967 -1.6496 81.698 4.56611L81.698 4.56612Z" fill="#FF4878"/>
</g>
<defs>
<clipPath id="clip0_715_69">
<rect width="191" height="212" fill="white" transform="translate(0.5)"/>
</clipPath>
</defs>
</svg>
