<svg width="491" height="462" viewBox="0 0 491 462" fill="none" xmlns="http://www.w3.org/2000/svg">
<g clip-path="url(#clip0_706_16)">
<path d="M356.469 262.166V389.791L377.832 424.581L379.458 427.228H463.753L465.456 262.166H356.469Z" fill="#E6E6E6"/>
<path opacity="0.1" d="M356.469 262.166V389.791L377.832 424.581L379.143 262.166H356.469Z" fill="black"/>
<path d="M152.968 258.763V386.387L131.604 421.178L129.978 423.824H45.6834L43.9802 258.763H152.968Z" fill="#E6E6E6"/>
<path opacity="0.1" d="M152.968 258.763V386.387L131.604 421.178L130.293 258.763H152.968Z" fill="black"/>
<path d="M491 256.211V263.868H32.9111V252.807L75.4843 230.685H453.536L491 256.211Z" fill="#E6E6E6"/>
<path opacity="0.1" d="M491 256.211V263.868H32.9111V252.807L491 256.211Z" fill="black"/>
<path d="M98.4743 294.498H78.0387L69.524 288.542H107.84L98.4743 294.498Z" fill="#3F3D56"/>
<path d="M98.4743 319.172H78.0387L69.524 313.216H107.84L98.4743 319.172Z" fill="#3F3D56"/>
<path d="M98.4743 354.056H78.0387L69.524 348.1H107.84L98.4743 354.056Z" fill="#3F3D56"/>
<path d="M98.4743 388.94H78.0387L69.524 382.984H107.84L98.4743 388.94Z" fill="#3F3D56"/>
<path d="M410.962 297.901H431.398L439.912 291.945H401.596L410.962 297.901Z" fill="#3F3D56"/>
<path d="M410.962 322.575H431.398L439.912 316.619H401.596L410.962 322.575Z" fill="#3F3D56"/>
<path d="M410.962 357.459H431.398L439.912 351.504H401.596L410.962 357.459Z" fill="#3F3D56"/>
<path d="M410.962 392.343H431.398L439.912 386.387H401.596L410.962 392.343Z" fill="#3F3D56"/>
<path d="M424.878 83.1002H252.842C251.988 83.1001 251.141 83.2682 250.352 83.5949C249.563 83.9216 248.845 84.4004 248.241 85.0042C247.637 85.6079 247.158 86.3247 246.831 87.1135C246.504 87.9023 246.336 88.7478 246.336 89.6016V205.403C246.336 206.257 246.504 207.102 246.831 207.891C247.158 208.68 247.637 209.397 248.241 210C248.845 210.604 249.563 211.083 250.352 211.41C251.141 211.736 251.988 211.905 252.842 211.904H318.148L315.702 227.514C315.702 227.514 301.719 234.936 311.551 235.155C321.382 235.373 367.699 235.155 367.699 235.155C367.699 235.155 376.656 235.155 362.455 227.295L360.154 211.904H424.878C425.733 211.905 426.579 211.736 427.368 211.41C428.158 211.083 428.875 210.604 429.479 210C430.083 209.397 430.562 208.68 430.889 207.891C431.216 207.102 431.384 206.257 431.384 205.403V89.6016C431.384 88.7478 431.216 87.9023 430.889 87.1135C430.562 86.3246 430.083 85.6079 429.479 85.0042C428.875 84.4004 428.158 83.9216 427.368 83.5949C426.579 83.2682 425.733 83.1001 424.878 83.1002Z" fill="#3F3D56"/>
<path d="M425.158 89.9771H252.562V186.471H425.158V89.9771Z" fill="#F2F2F2"/>
<path d="M338.86 88.0123C339.463 88.0123 339.952 87.5236 339.952 86.9207C339.952 86.3179 339.463 85.8292 338.86 85.8292C338.257 85.8292 337.768 86.3179 337.768 86.9207C337.768 87.5236 338.257 88.0123 338.86 88.0123Z" fill="#F2F2F2"/>
<path d="M338.86 207.211C341.153 207.211 343.011 205.354 343.011 203.063C343.011 200.772 341.153 198.915 338.86 198.915C336.567 198.915 334.709 200.772 334.709 203.063C334.709 205.354 336.567 207.211 338.86 207.211Z" fill="#F2F2F2"/>
<path d="M332.392 246.944V249.127H214.852V247.38L215.014 246.944L217.91 239.084H329.988L332.392 246.944Z" fill="#3F3D56"/>
<path d="M377.625 244.806C377.41 245.721 376.602 246.686 374.776 247.599C368.221 250.873 354.894 246.725 354.894 246.725C354.894 246.725 344.626 244.979 344.626 240.394C344.914 240.197 345.215 240.018 345.526 239.859C348.282 238.403 357.418 234.808 373.619 240.012C374.812 240.386 375.878 241.084 376.698 242.028C377.061 242.385 377.335 242.823 377.496 243.306C377.657 243.789 377.701 244.303 377.625 244.806Z" fill="#3F3D56"/>
<path opacity="0.1" d="M377.625 244.806C369.602 247.878 362.451 248.107 355.113 243.014C352.338 240.964 348.977 239.858 345.526 239.859C348.282 238.403 357.418 234.808 373.619 240.012C374.812 240.386 375.878 241.084 376.698 242.028C377.061 242.385 377.335 242.823 377.496 243.306C377.657 243.789 377.701 244.303 377.625 244.806Z" fill="black"/>
<path d="M367.566 243.014C369.135 243.014 370.406 242.623 370.406 242.141C370.406 241.658 369.135 241.267 367.566 241.267C365.997 241.267 364.726 241.658 364.726 242.141C364.726 242.623 365.997 243.014 367.566 243.014Z" fill="#F2F2F2"/>
<path opacity="0.1" d="M332.392 246.944V249.127H214.852V247.38L215.014 246.944H332.392Z" fill="black"/>
<path d="M65.3537 7.99187e-05C64.1608 -0.0977891 62.9663 0.168852 61.9285 0.764672C60.9095 1.462 60.2672 2.68365 59.6116 3.82047C57.105 8.21887 53.7116 12.0492 49.6463 15.0687C46.6852 17.2363 42.9207 19.939 43.4273 23.9355C43.6945 25.2553 44.1825 26.5207 44.8706 27.6784C47.6022 33.1885 55.0564 37.4466 54.3232 43.7341C57.0371 39.194 53.407 36.9491 56.121 32.4091C57.4134 30.247 59.6586 27.8064 61.61 29.1642C62.2633 29.6189 62.6924 30.4343 63.3727 30.8332C64.9959 31.785 66.7229 29.9653 68.1598 28.6764C73.1146 24.2317 80.1609 25.3961 86.3267 26.781C89.2376 27.4348 92.4348 28.2925 94.1556 31.0725C96.418 34.7276 92.0061 38.6752 90.8913 42.8077C90.8003 43.1598 90.796 43.5287 90.8788 43.8829C90.9616 44.237 91.129 44.5659 91.3666 44.8413C91.6043 45.1167 91.9052 45.3305 92.2436 45.4644C92.582 45.5983 92.9478 45.6483 93.3097 45.6101C95.1598 45.4277 97.3515 45.2782 97.4609 44.467C99.7886 44.5498 102.641 44.2864 103.638 41.8644C103.943 40.9062 104.104 39.9081 104.116 38.9026C104.482 34.8343 106.21 31.1227 107.355 27.2506C108.5 23.3785 108.997 18.8407 107.066 15.4076C106.376 14.2654 105.524 13.2299 104.535 12.3338C93.5719 1.73262 79.1582 -0.0156562 65.3537 7.99187e-05Z" fill="#2F2E41"/>
<path d="M56.7074 51.6755C56.7074 51.6755 59.0916 71.5291 50.3495 73.1174C41.6074 74.7057 58.2968 101.707 58.2968 101.707L98.0337 106.471L88.4969 74.7057C88.4969 74.7057 82.139 72.3232 86.1127 56.4404C90.0864 40.5575 56.7074 51.6755 56.7074 51.6755Z" fill="#FFB8B8"/>
<path d="M32.4679 392.76L35.6472 436.439H52.3361L47.5682 392.76H32.4679Z" fill="#FFB8B8"/>
<path d="M154.857 310.17L157.241 346.7L175.521 338.759L168.368 308.582L154.857 310.17Z" fill="#FFB8B8"/>
<path d="M20.5469 225.99C20.5469 225.99 21.3416 272.051 26.1101 287.139C30.8785 302.228 30.0837 303.022 29.289 305.405C28.4943 307.787 27.6995 306.199 27.6995 310.17C27.6995 314.14 26.1101 376.878 27.6995 382.437C29.289 387.996 22.9311 397.526 27.6995 398.32C32.468 399.114 54.7206 398.32 55.5154 393.555C56.3101 388.79 49.1575 387.202 52.3364 384.025C55.5154 380.849 60.2838 315.729 60.2838 315.729L71.4101 270.462L92.0733 246.638H135.784L149.294 299.052C149.294 299.052 143.731 314.14 147.705 314.14C151.679 314.14 175.521 318.905 175.521 301.434C175.521 283.963 167.573 232.343 165.984 230.755C164.394 229.167 166.779 223.608 164.394 221.225C162.01 218.843 134.194 202.166 123.863 198.989C113.531 195.813 99.0377 192.032 99.0377 192.032L20.5469 225.99Z" fill="#2F2E41"/>
<path d="M175.521 332.406C175.521 332.406 163.6 328.435 158.036 340.347C152.473 352.259 154.858 355.436 154.858 355.436C154.858 355.436 173.136 361.789 176.315 358.612C177.699 357.23 182.09 356.75 186.611 356.649C193.496 356.495 195.328 346.761 188.826 344.494C188.632 344.426 188.435 344.368 188.236 344.318C181.879 342.73 175.521 332.406 175.521 332.406Z" fill="#2F2E41"/>
<path d="M74.589 64.7789C87.7566 64.7789 98.4311 54.1124 98.4311 40.9546C98.4311 27.7968 87.7566 17.1302 74.589 17.1302C61.4213 17.1302 50.7468 27.7968 50.7468 40.9546C50.7468 54.1124 61.4213 64.7789 74.589 64.7789Z" fill="#FFB8B8"/>
<path d="M43.5942 83.0442C43.5942 83.0442 82.5363 90.9857 92.0732 78.2794C101.61 65.573 105.584 114.016 105.584 114.016L110.352 164.841L103.2 192.636C103.2 192.636 65.8468 222.814 53.9258 225.196C42.0047 227.579 23.7257 229.167 23.7257 229.167C23.7257 229.167 29.2889 141.017 29.2889 139.428C29.2889 137.84 43.5942 83.0442 43.5942 83.0442Z" fill="#FF4878"/>
<path d="M55.4375 68.1503C55.4375 68.1503 46.7732 63.1906 44.389 67.9555C42.0048 72.7204 19.7521 84.6325 17.3679 84.6325C14.9837 84.6325 22.1364 150.547 18.9574 158.488C15.7784 166.429 0.678436 224.402 9.42055 229.167C18.1627 233.932 11.8048 224.402 20.5469 236.314C29.289 248.226 72.2048 248.226 74.589 243.461C76.9733 238.697 55.5153 202.96 59.489 169.606C63.4627 136.252 69.8206 90.1916 64.2575 83.8384C58.6943 77.4852 55.4375 68.1503 55.4375 68.1503Z" fill="#2F2E41"/>
<path d="M84.1259 73.5145L85.2328 69.7078C85.2328 69.7078 118.3 80.6618 119.889 87.8091C121.479 94.9564 120.684 144.988 115.121 148.958C109.557 152.929 101.61 159.282 107.173 168.812C112.736 178.342 119.094 188.666 123.863 189.46C128.631 190.254 137.373 195.813 134.989 201.372C132.605 206.931 103.994 196.607 103.994 196.607C103.994 196.607 84.9206 182.312 85.7153 160.076C86.5101 137.84 84.1259 73.5145 84.1259 73.5145Z" fill="#2F2E41"/>
<path d="M111.942 167.224L92.868 202.96C92.868 202.96 65.0522 231.549 80.9469 234.726C96.8417 237.902 105.584 208.519 105.584 208.519L126.247 179.136L111.942 167.224Z" fill="#FFB8B8"/>
<path d="M66.5152 6.23366C65.5542 6.1625 64.5916 6.34907 63.7269 6.77407C62.9451 7.34464 62.3007 8.08255 61.8409 8.93388C59.7211 12.1201 56.9579 14.8282 53.7287 16.884C51.3182 18.4161 48.2537 20.3264 48.6661 23.151C48.89 24.0981 49.2884 24.9952 49.8411 25.7965C52.0724 29.7304 52.9607 34.2834 52.3715 38.7667L58.9993 29.1401C60.0514 27.612 61.8791 25.887 63.4676 26.8467C63.9995 27.168 64.3487 27.7444 64.9025 28.0263C66.2239 28.6991 67.6297 27.4129 68.7994 26.5019C72.8329 23.3605 78.5688 24.1834 83.5881 25.1622C85.9576 25.6243 88.5603 26.2306 89.9611 28.1955C92.2889 31.4607 89.8582 36.1788 91.2168 39.951C91.5971 39.6849 91.9201 39.3453 92.1666 38.9522C92.4131 38.5591 92.5781 38.1206 92.6518 37.6626C94.5466 37.7211 96.8684 37.5349 97.6802 35.8231C97.9272 35.1522 98.0588 34.4444 98.0695 33.7297C98.3674 30.8542 99.7741 28.2309 100.706 25.4942C101.638 22.7574 102.043 19.55 100.47 17.1236C99.8951 16.3014 99.2008 15.5693 98.4101 14.951C89.4859 7.45819 77.7526 6.22254 66.5152 6.23366Z" fill="#2F2E41"/>
<path d="M111.942 84.6325L119.346 86.5965C119.346 86.5965 136.579 130.693 132.605 160.87C128.631 191.048 126.247 184.695 126.247 184.695C126.247 184.695 119.889 170.4 105.584 173.577L111.942 84.6325Z" fill="#2F2E41"/>
<path d="M33.569 430.666C31.6525 433.269 32.0368 436.989 30.3391 439.739C28.8676 442.122 26.0943 443.372 24.2537 445.484C23.6664 446.186 23.1428 446.939 22.6892 447.733C20.9818 450.591 19.594 454.254 21.2755 457.127C22.6283 459.438 25.4717 460.341 28.0794 460.957C31.3754 461.735 34.7999 462.358 38.1339 461.763C41.468 461.169 44.7264 459.129 45.9152 455.96C46.1488 455.163 46.4266 454.38 46.7471 453.614C48.5542 450.059 54.2224 450.021 56.0718 446.487C57.3661 444.015 56.1763 441.026 54.9871 438.501L51.3548 430.791C50.1495 428.232 45.2631 429.703 42.7157 429.09C39.3933 428.29 35.9591 427.409 33.569 430.666Z" fill="#2F2E41"/>
<path d="M7.03625 183.106L40.4152 234.726C40.4152 234.726 61.0784 260.933 67.4363 249.02C73.7942 237.108 45.1837 217.255 45.1837 217.255L23.7257 177.547L7.03625 183.106Z" fill="#FFB8B8"/>
<path d="M23.7258 86.2208L17.3679 84.6325C17.3679 84.6325 4.65206 88.6032 1.47311 105.28C-1.70584 121.957 0.67837 188.665 4.65206 189.46C8.62575 190.254 24.2781 177.844 26.7835 180.475C29.2889 183.106 21.3415 169.606 23.7257 162.459C26.1099 155.311 23.7258 86.2208 23.7258 86.2208Z" fill="#2F2E41"/>
<path d="M322.524 121.669H301.983V126.61H322.524V121.669Z" fill="#FF4878"/>
<path d="M393.656 121.669H386.429V126.61H393.656V121.669Z" fill="#FF4878"/>
<path d="M408.111 121.669H400.884V126.61H408.111V121.669Z" fill="#FF4878"/>
<path d="M378.821 121.669H329.751V126.61H378.821V121.669Z" fill="#FF4878"/>
<path d="M296.658 153.598H276.117V158.539H296.658V153.598Z" fill="#FF4878"/>
<path d="M367.79 153.598H360.563V158.539H367.79V153.598Z" fill="#FF4878"/>
<path d="M382.245 153.598H375.017V158.539H382.245V153.598Z" fill="#FF4878"/>
<path d="M352.955 153.598H303.885V158.539H352.955V153.598Z" fill="#FF4878"/>
<path d="M381.484 132.692H360.943V137.633H381.484V132.692Z" fill="#FF4878"/>
<path d="M409.252 132.692H388.711V137.633H409.252V132.692Z" fill="#FF4878"/>
<path d="M283.344 132.692H276.117V137.633H283.344V132.692Z" fill="#FF4878"/>
<path d="M297.799 132.692H290.572V137.633H297.799V132.692Z" fill="#FF4878"/>
<path d="M354.096 132.692H305.026V137.633H354.096V132.692Z" fill="#FF4878"/>
<path d="M338.881 143.335H318.34V148.276H338.881V143.335Z" fill="#FF4878"/>
<path d="M311.113 143.335H290.572V148.276H311.113V143.335Z" fill="#FF4878"/>
<path d="M283.344 143.335H276.117V148.276H283.344V143.335Z" fill="#FF4878"/>
<path d="M409.252 143.335H402.025V148.276H409.252V143.335Z" fill="#FF4878"/>
<path d="M394.797 143.335H345.728V148.276H394.797V143.335Z" fill="#FF4878"/>
</g>
<defs>
<clipPath id="clip0_706_16">
<rect width="491" height="462" fill="white"/>
</clipPath>
</defs>
</svg>
