<svg version="1.1" id="Layer_1" xmlns="http://www.w3.org/2000/svg" xmlns:xlink="http://www.w3.org/1999/xlink" x="0px" y="0px"
	 viewBox="0 0 512 512" style="enable-background:new 0 0 512 512;" xml:space="preserve">
<g>
	<g>
		<path fill="#6F36BB" d="M468.32,53.08H43.68C19.595,53.08,0,72.675,0,96.76V415.24c0,24.085,19.595,43.68,43.68,43.68H468.32
			c24.085,0,43.68-19.595,43.68-43.68V96.76C512,72.675,492.405,53.08,468.32,53.08z M495.413,415.24
			c0,14.939-12.153,27.093-27.093,27.093H43.68c-14.94,0-27.093-12.154-27.093-27.093V211.214h478.825V415.24z M495.413,194.626
			H16.587v-54.186h478.825V194.626z M495.413,123.853H16.587V96.76c0-14.939,12.153-27.093,27.093-27.093H468.32
			c14.94,0,27.093,12.154,27.093,27.093V123.853z"/>
	</g>
</g>
<g>
	<g>
		<path fill="#6F36BB" d="M185.227,159.24H43.68c-4.581,0-8.294,3.713-8.294,8.294c0,4.58,3.712,8.294,8.294,8.294h141.546
			c4.581,0,8.294-3.713,8.294-8.294C193.521,162.953,189.808,159.24,185.227,159.24z"/>
	</g>
</g>
<g>
	<g>
		<path fill="#6F36BB" d="M256,159.24h-35.387c-4.581,0-8.294,3.713-8.294,8.294c0,4.58,3.712,8.294,8.294,8.294H256
			c4.581,0,8.294-3.713,8.294-8.294C264.294,162.953,260.581,159.24,256,159.24z"/>
	</g>
</g>
<g>
	<g>
		<path fill="#6F36BB" d="M326.773,159.24h-35.387c-4.581,0-8.294,3.713-8.294,8.294c0,4.58,3.712,8.294,8.294,8.294h35.387
			c4.581,0,8.294-3.713,8.294-8.294C335.067,162.953,331.355,159.24,326.773,159.24z"/>
	</g>
</g>
<g>
	<g>
		<path fill="#6F36BB" d="M397.546,159.24H362.16c-4.581,0-8.294,3.713-8.294,8.294c0,4.58,3.712,8.294,8.294,8.294h35.387
			c4.581,0,8.294-3.713,8.294-8.294C405.84,162.953,402.128,159.24,397.546,159.24z"/>
	</g>
</g>
<g>
	<g>
		<path fill="#6F36BB" d="M468.32,159.24h-35.387c-4.581,0-8.294,3.713-8.294,8.294c0,4.58,3.712,8.294,8.294,8.294h35.387
			c4.581,0,8.294-3.713,8.294-8.294C476.613,162.953,472.901,159.24,468.32,159.24z"/>
	</g>
</g>
<g>
	<g>
		<path fill="#6F36BB" d="M61.374,88.467h-8.847c-4.581,0-8.294,3.713-8.294,8.294c0,4.58,3.712,8.294,8.294,8.294h8.847
			c4.581,0,8.294-3.713,8.294-8.294C69.667,92.18,65.955,88.467,61.374,88.467z"/>
	</g>
</g>
<g>
	<g>
		<path fill="#6F36BB" d="M96.76,88.467h-8.847c-4.581,0-8.294,3.713-8.294,8.294c0,4.58,3.712,8.294,8.294,8.294h8.847
			c4.581,0,8.294-3.713,8.294-8.294C105.054,92.18,101.342,88.467,96.76,88.467z"/>
	</g>
</g>
<g>
	<g>
		<path fill="#6F36BB" d="M132.147,88.467H123.3c-4.581,0-8.294,3.713-8.294,8.294c0,4.58,3.712,8.294,8.294,8.294h8.847
			c4.581,0,8.294-3.713,8.294-8.294C140.441,92.18,136.728,88.467,132.147,88.467z"/>
	</g>
</g>
<g>
	<g>
		<path fill="#6F36BB" d="M220.613,230.013H43.68c-4.581,0-8.294,3.713-8.294,8.294V415.24c0,4.58,3.712,8.294,8.294,8.294h176.933
			c4.581,0,8.294-3.713,8.294-8.294V238.307C228.907,233.726,225.195,230.013,220.613,230.013z M200.59,246.6l-68.443,68.443
			L63.704,246.6H200.59z M51.974,258.33l68.443,68.443l-68.443,68.443V258.33z M63.704,406.946l68.443-68.443l68.443,68.443H63.704z
			 M212.32,395.216l-68.443-68.443l68.443-68.443V395.216z"/>
	</g>
</g>
<g>
	<g>
		<path fill="#6F36BB" d="M468.32,230.013h-88.466c-4.581,0-8.294,3.713-8.294,8.294V415.24c0,4.58,3.712,8.294,8.294,8.294h88.466
			c4.581,0,8.294-3.713,8.294-8.294V238.307C476.613,233.726,472.901,230.013,468.32,230.013z M454.9,246.6l-30.814,61.628
			L393.272,246.6H454.9z M388.147,273.439l26.667,53.334l-26.667,53.334V273.439z M393.272,406.946l30.814-61.628l30.814,61.628
			H393.272z M460.026,380.107l-26.667-53.334l26.667-53.334V380.107z"/>
	</g>
</g>
<g>
	<g> 
		<path fill="#6F36BB" d="M344.466,230.013H256c-4.581,0-8.294,3.713-8.294,8.294V415.24c0,4.58,3.712,8.294,8.294,8.294h88.466
			c4.581,0,8.294-3.713,8.294-8.294V238.307C352.76,233.726,349.048,230.013,344.466,230.013z M331.047,246.6l-30.814,61.628
			L269.419,246.6H331.047z M264.294,273.439l26.667,53.334l-26.667,53.334V273.439z M269.419,406.946l30.814-61.628l30.814,61.628
			H269.419z M336.173,380.107l-26.667-53.334l26.667-53.334V380.107z"/>
	</g>
</g>
</svg>
